<?xml version="1.0" encoding="UTF-8"?> <!-- Generator: Adobe Illustrator 23.0.2, SVG Export Plug-In . SVG Version: 6.00 Build 0) --> <svg xmlns="http://www.w3.org/2000/svg" xmlns:xlink="http://www.w3.org/1999/xlink" id="Layer_2" x="0px" y="0px" viewBox="0 0 941.9 480.2" style="enable-background:new 0 0 941.9 480.2;" xml:space="preserve"> <style type="text/css"> .st0{fill:none;stroke:#000000;stroke-width:4;stroke-miterlimit:10;} </style> <path class="st0" d="M317,133.7c-9.8,17.5-34.3,70.6,7.5,102.2c3.9,2.9,8.8,3.9,13.5,2.6c49.9-13,23.4-89.6,23.4-89.6 s-6.9-19.1-33.9-20.9C323.2,127.7,319.1,129.9,317,133.7z"></path> <path class="st0" d="M324.5,247.9c2,3,20,120,128,131s145-8,120-40s-48-24-64-25s-69-1-88-41"></path> <path class="st0" d="M362.5,222.9c9-3,49,8,52,15s12,108,9,124s8,24-15,25s-110-23-114-30s-11-29-28-26s-41,11-29,14s29-5,33,0 s-9,2-7,13s20,17,21,8"></path> <path class="st0" d="M308.5,231.9c0,0-10-2-26,102"></path> <path class="st0" d="M407.5,353.9c-2-4-9-16-27-8s-30,14-44,14s-44-10-44-10"></path> <path class="st0" d="M346.5,182.9c-3,0-5,8-15,8s-19,3-29-3"></path> <path class="st0" d="M567.5,349.9c7-2,173,11,173-6s-10-18-28-36s-49-79-77-92s-41-15-31-25s53-45,53-45l-2,14c0,0-19,21-14,30 s123,128,125,143s-2,20-21,30s-144,13-174,10"></path> <path class="st0" d="M557.5,321.9c0,0,87,22,106,20s52-22,49-34s6-103,13-135s38-49,33-55s-35-4-35-4s-45,37-35,50s13,18,27,5"></path> <path class="st0" d="M78.5,246.9c7-2,100,40,100,40s6.5,25.5,14.2,52.5c9.1,31.8,23.8,68.6,18.8,67.5c-4.2-0.9-97-35-99-38 S78.5,246.9,78.5,246.9z"></path> <polyline class="st0" points="213.5,404.9 305.5,395.9 215.5,334.9 193.5,335.9 "></polyline> </svg> 